# xmcd
#
# Track frame offsets:
# 150
# 12376
# 32161
# 47562
# 59157
# 72530
# 91364
# 104105
# 119612
# 134948
# 148058
# 160848
# 170688
# 186478
# 198834
# 212472
# 222786
# 241498
#
# Disc length: 3391 seconds
#
#
# Revision: 3
# Processed by: cddbd v1.5.2PL0 Copyright (c) Steve Scherf et al.
# Submitted via: FreeRIP 2.95 
#
DISCID=260d3d12
DTITLE=Various Artist - Ultimate Country Disk 1
DYEAR=2004
DGENRE=Country
TTITLE0=Dolly Parton - Jolene
TTITLE1=The Mavericks - Dance The Night Away
TTITLE2=Billy Ray Cyrus - Achy Breaky Heart
TTITLE3=Patsy Cline - Walkin' After Midnight
TTITLE4=Charlie Rich - Behind Closed Doors
TTITLE5=Kris Kristofferson - Me And Bobby McGee
TTITLE6=LeAnn Rimes - Blue
TTITLE7=Don McLean - Crazy
TTITLE8=Don Williams - I Recall A Gypsy Woman
TTITLE9=Charlie Rich - Cold Cold Heart
TTITLE10=Conway Twitty - I Can't Stop Loving You
TTITLE11=Tom T Hall - Country Is
TTITLE12=Crystal Gayle - Tennessee Nights
TTITLE13=Freddie Fender - Wasted Days And Wasted Nights
TTITLE14=Kenny Rogers - I Will Always Love You
TTITLE15=The Statler Brothers - Hello Mary Lou
TTITLE16=Nanci Griffith - I Don't Want To Talk About Love
TTITLE17=Buddy Holly - True Love Ways
EXTD=YEAR: 2004
EXTT0=
EXTT1=
EXTT2=
EXTT3=
EXTT4=
EXTT5=
EXTT6=
EXTT7=
EXTT8=
EXTT9=
EXTT10=
EXTT11=
EXTT12=
EXTT13=
EXTT14=
EXTT15=
EXTT16=
EXTT17=
PLAYORDER=
